<svg viewBox="0 0 200 200" xmlns="http://www.w3.org/2000/svg">
  <path fill="#CDFCF6" d="M31.4,-52.9C44.3,-47,60.8,-45.8,72.6,-37.8C84.5,-29.7,91.7,-14.9,84.6,-4.1C77.6,6.7,56.2,13.4,47.9,27.6C39.6,41.7,44.3,63.3,38.5,75.8C32.6,88.3,16.3,91.8,1.4,89.4C-13.6,87,-27.1,78.7,-40.2,70.4C-53.3,62.1,-65.9,53.7,-72.4,42C-78.8,30.2,-79.1,15.1,-72.5,3.8C-65.9,-7.5,-52.5,-15.1,-43.1,-21.6C-33.6,-28.1,-28.1,-33.6,-21.6,-43.2C-15.1,-52.8,-7.5,-66.4,0.9,-67.9C9.3,-69.4,18.6,-58.8,31.4,-52.9Z" transform="translate(100 100)" />
</svg>