<?xml version="1.0" standalone="no"?>
<svg viewBox="0 0 200 200" xmlns="http://www.w3.org/2000/svg">
  <path fill="#CDFCF6" d="M42.6,-71.9C55.9,-66.1,67.8,-56.1,77.1,-43.4C86.4,-30.7,93.2,-15.3,93.6,0.3C94.1,15.9,88.3,31.7,75.1,37.7C61.8,43.6,41.2,39.6,27.4,40.7C13.7,41.7,6.9,47.8,-2.6,52.3C-12,56.8,-24,59.6,-33.9,56.3C-43.7,53,-51.4,43.5,-55.3,33.1C-59.1,22.7,-59.2,11.4,-56.5,1.6C-53.8,-8.3,-48.4,-16.5,-45.2,-28.1C-41.9,-39.6,-41,-54.4,-33.8,-63.8C-26.7,-73.1,-13.3,-77,0.7,-78.2C14.7,-79.4,29.3,-77.8,42.6,-71.9Z" transform="translate(100 100)" />
</svg>