<?xml version="1.0" standalone="no"?>
<svg viewBox="0 0 200 200" xmlns="http://www.w3.org/2000/svg">
  <path fill="#cdfcf6" d="M31.1,-51.3C42.8,-40.9,56.4,-36.4,63.3,-27.2C70.1,-18,70.2,-3.9,70.1,11.5C70.1,26.9,69.9,43.6,62.2,55.8C54.6,67.9,39.5,75.4,25.3,74.2C11,73,-2.3,63,-16.8,58.2C-31.3,53.4,-46.9,53.8,-58.9,47.1C-70.8,40.4,-79,26.4,-82.3,11.1C-85.6,-4.2,-84.1,-20.9,-76.9,-34.5C-69.8,-48.1,-57.1,-58.6,-43.3,-68C-29.6,-77.4,-14.8,-85.8,-2.5,-81.9C9.7,-77.9,19.4,-61.6,31.1,-51.3Z" transform="translate(100 100)" />
</svg>
