<?xml version="1.0" standalone="no"?>
<svg viewBox="0 0 200 200" xmlns="http://www.w3.org/2000/svg">
  <path fill="#CDFCF6" d="M42.8,-72.6C56.2,-66.4,68.2,-56.4,67.8,-43.6C67.4,-30.9,54.5,-15.4,52.7,-1C50.9,13.4,60.2,26.8,59.6,37.6C58.9,48.5,48.3,56.9,36.7,61.5C25.1,66.1,12.6,66.9,-0.6,68.1C-13.8,69.2,-27.7,70.6,-39.8,66.3C-51.9,61.9,-62.3,51.9,-71.1,39.9C-79.9,27.9,-87.3,14,-83.1,2.4C-78.9,-9.2,-63.2,-18.3,-52.2,-26.5C-41.2,-34.7,-34.8,-41.9,-26.9,-51.3C-18.9,-60.6,-9.5,-72,2.6,-76.5C14.7,-81.1,29.4,-78.8,42.8,-72.6Z" transform="translate(100 100)" />
</svg>