<?xml version="1.0" standalone="no"?>
<svg viewBox="0 0 200 200" xmlns="http://www.w3.org/2000/svg">
  <path fill="#CDFCF6" d="M41.7,-69.4C54.2,-65.1,64.3,-54.1,71.3,-41.4C78.3,-28.7,82.1,-14.3,80,-1.2C78,12,70.1,23.9,60.5,32.1C50.9,40.2,39.5,44.5,29.2,45.2C18.8,45.9,9.4,43.1,-3,48.2C-15.3,53.3,-30.7,66.5,-44.2,67.6C-57.7,68.7,-69.4,57.8,-75.7,44.5C-82,31.2,-82.8,15.6,-80.3,1.4C-77.8,-12.7,-71.9,-25.4,-65.6,-38.6C-59.2,-51.7,-52.4,-65.3,-41.4,-70.4C-30.4,-75.4,-15.2,-71.9,-0.3,-71.5C14.7,-71.1,29.3,-73.6,41.7,-69.4Z" transform="translate(100 100)" />
</svg>
