<?xml version="1.0" standalone="no"?>
<svg viewBox="0 0 200 200" xmlns="http://www.w3.org/2000/svg">
  <path fill="#CDFCF6" d="M38.6,-64.2C50.6,-59.8,61.3,-50.7,65.9,-39.2C70.5,-27.7,69,-13.9,65.6,-1.9C62.3,10,57.2,20,53.4,32.9C49.6,45.8,47.1,61.6,38.5,71.4C29.8,81.1,14.9,84.8,0.7,83.5C-13.5,82.3,-26.9,76.1,-40.1,69C-53.4,61.9,-66.3,53.8,-72.8,42.2C-79.2,30.5,-79.2,15.3,-80.2,-0.6C-81.3,-16.5,-83.5,-33,-76.3,-43.5C-69.2,-54,-52.8,-58.5,-38.5,-61.5C-24.2,-64.5,-12.1,-66,0.6,-67C13.3,-68,26.6,-68.5,38.6,-64.2Z" transform="translate(100 100)" />
</svg>